<?xml version="1.0" encoding="utf-8"?>
<!-- Generator: Adobe Illustrator 16.0.0, SVG Export Plug-In . SVG Version: 6.00 Build 0)  -->
<!DOCTYPE svg PUBLIC "-//W3C//DTD SVG 1.1//EN" "http://www.w3.org/Graphics/SVG/1.1/DTD/svg11.dtd">
<svg version="1.1" id="Layer_1" xmlns="http://www.w3.org/2000/svg" xmlns:xlink="http://www.w3.org/1999/xlink" x="0px" y="0px"
	 width="251.839px" height="185.401px" viewBox="0 0 251.839 185.401" enable-background="new 0 0 251.839 185.401"
	 xml:space="preserve">
<path fill-rule="evenodd" clip-rule="evenodd" fill="#FFFFFF" d="M0,0h15.881c2.861,0,13.305,2.236,13.305,13.647v18.194H46.25
	c0,14.701,0.336,23.314-17.063,23.314v57.446c0,10.874,5.545,10.086,17.063,10.086v21.983c-9.95,0-19.902,0-29.855,0
	C2.339,144.672,0,136.174,0,123.681V0L0,0z M169.108,31.781l24.667,70.318c7.322,16.534-2.691,21.172-20.582,20.406v22.063
	l20.014-0.284c17.139-0.24,24.842-14.105,29.318-29.203l29.314-88.102l-16.699-0.188c-7.785-0.179-12.482,3.716-14.096,11.686
	l-10.756,37.282l-12.982-43.96L169.108,31.781L169.108,31.781z M114.338,30.957c42.094-1.217,59.103,13.23,59.118,36.68
	l0.015,38.787c0.007,16.09-6.867,29.539-22.439,35.461c-10.33,3.924-34.852,3.67-45.686,0.897
	c-27.329-6.986-30.832-55.214,1.362-62.675c8.526-2.592,26.079-1.549,35.276-6.527c6.082-3.289,9.088-11.771,1.885-16.097
	c-2.658-1.597-6.246-2.553-10.076-3.085v-0.015c-6.452-0.824-12.908-1.083-19.363-0.591
	C114.252,46.492,114.563,38.188,114.338,30.957L114.338,30.957z M48.493,92.574v52.098h29.405l0,0v-35.039l0,0
	c0-23.709-2.409-48.175,23.009-53.637c3.574-0.908,7.146-1.543,10.716-1.94V31.081C76.652,31.377,48.493,44.424,48.493,92.574
	L48.493,92.574L48.493,92.574z M151.743,89.855c-8.481,4.302-19.923,5.017-29.416,6.277c-12.722,2.014-18.53,14.434-13.426,22.793
	c6.245,10.226,22.704,7.753,31.325,2.341C152.982,113.259,151.596,102.756,151.743,89.855z"/>
<g>
	<path fill="#FFFFFF" d="M20.575,165.526c-0.177,0.226-0.35,0.402-0.519,0.53c-0.169,0.129-0.415,0.193-0.736,0.193
		c-0.306,0-0.603-0.093-0.893-0.277s-0.635-0.394-1.037-0.627c-0.402-0.233-0.88-0.442-1.435-0.628
		c-0.555-0.185-1.242-0.277-2.063-0.277c-1.045,0-1.962,0.189-2.75,0.567c-0.788,0.378-1.444,0.921-1.966,1.628
		c-0.523,0.708-0.913,1.564-1.17,2.569c-0.258,1.005-0.386,2.143-0.386,3.413c0,1.318,0.141,2.492,0.422,3.521
		c0.281,1.029,0.688,1.894,1.218,2.593c0.531,0.699,1.174,1.23,1.93,1.592c0.756,0.362,1.608,0.543,2.557,0.543
		c0.949,0,1.716-0.116,2.303-0.35s1.082-0.49,1.483-0.772c0.402-0.281,0.752-0.538,1.049-0.771c0.297-0.232,0.631-0.35,1.001-0.35
		c0.482,0,0.844,0.185,1.085,0.555l1.713,2.171c-0.66,0.771-1.375,1.419-2.147,1.941c-0.772,0.523-1.572,0.941-2.4,1.255
		c-0.829,0.313-1.685,0.534-2.569,0.663c-0.885,0.129-1.761,0.192-2.629,0.192c-1.528,0-2.967-0.285-4.317-0.855
		c-1.351-0.571-2.529-1.403-3.534-2.497c-1.005-1.093-1.801-2.432-2.388-4.016s-0.88-3.39-0.88-5.415
		c0-1.817,0.261-3.502,0.784-5.054c0.522-1.552,1.291-2.895,2.303-4.028c1.013-1.134,2.268-2.021,3.763-2.665
		c1.495-0.644,3.216-0.965,5.162-0.965c1.849,0,3.469,0.298,4.86,0.893c1.391,0.595,2.641,1.447,3.751,2.557L20.575,165.526z"/>
	<path fill="#FFFFFF" d="M36.76,159.906c1.849,0,3.525,0.298,5.029,0.893c1.503,0.595,2.786,1.439,3.847,2.532
		c1.061,1.094,1.881,2.429,2.46,4.004c0.579,1.576,0.869,3.337,0.869,5.283c0,1.962-0.29,3.73-0.869,5.307
		c-0.579,1.576-1.399,2.918-2.46,4.027c-1.062,1.11-2.344,1.963-3.847,2.558c-1.504,0.595-3.18,0.892-5.029,0.892
		c-1.85,0-3.53-0.297-5.042-0.892c-1.512-0.595-2.802-1.447-3.871-2.558c-1.07-1.109-1.898-2.451-2.485-4.027
		s-0.88-3.345-0.88-5.307c0-1.946,0.293-3.707,0.88-5.283c0.587-1.575,1.415-2.91,2.485-4.004c1.069-1.093,2.359-1.938,3.871-2.532
		C33.229,160.204,34.91,159.906,36.76,159.906z M36.76,180.819c2.058,0,3.582-0.691,4.571-2.075
		c0.989-1.383,1.483-3.408,1.483-6.078c0-2.669-0.495-4.703-1.483-6.103s-2.513-2.099-4.571-2.099c-2.091,0-3.634,0.704-4.631,2.11
		c-0.997,1.407-1.496,3.438-1.496,6.091s0.499,4.676,1.496,6.066S34.669,180.819,36.76,180.819z"/>
	<path fill="#FFFFFF" d="M53.62,185.04v-24.748h3.642c0.772,0,1.278,0.362,1.52,1.086l0.386,1.833
		c0.434-0.482,0.888-0.925,1.363-1.327c0.474-0.401,0.98-0.747,1.52-1.037c0.539-0.289,1.117-0.519,1.737-0.688
		c0.619-0.169,1.298-0.253,2.038-0.253c1.56,0,2.842,0.422,3.847,1.267c1.005,0.844,1.757,1.966,2.255,3.364
		c0.386-0.82,0.868-1.523,1.447-2.11s1.214-1.065,1.905-1.436c0.691-0.369,1.427-0.643,2.208-0.819
		c0.78-0.177,1.563-0.266,2.352-0.266c1.367,0,2.581,0.209,3.642,0.627c1.062,0.418,1.954,1.029,2.678,1.833
		c0.724,0.805,1.274,1.785,1.652,2.943c0.377,1.157,0.566,2.484,0.566,3.979v15.751H82.42v-15.751c0-1.576-0.346-2.762-1.037-3.558
		c-0.692-0.796-1.705-1.194-3.04-1.194c-0.611,0-1.178,0.104-1.7,0.313c-0.523,0.209-0.981,0.511-1.375,0.905
		c-0.395,0.394-0.704,0.889-0.929,1.483c-0.226,0.595-0.338,1.278-0.338,2.05v15.751H68.02v-15.751c0-1.656-0.334-2.862-1.001-3.618
		c-0.667-0.756-1.652-1.134-2.955-1.134c-0.853,0-1.652,0.214-2.4,0.64c-0.748,0.426-1.443,1.009-2.086,1.748v18.115H53.62z"/>
	<path fill="#FFFFFF" d="M94.239,185.04v-24.748h3.642c0.772,0,1.278,0.362,1.52,1.086l0.386,1.833
		c0.434-0.482,0.888-0.925,1.363-1.327c0.474-0.401,0.98-0.747,1.52-1.037c0.539-0.289,1.117-0.519,1.737-0.688
		c0.619-0.169,1.298-0.253,2.038-0.253c1.56,0,2.842,0.422,3.847,1.267c1.005,0.844,1.757,1.966,2.255,3.364
		c0.386-0.82,0.868-1.523,1.447-2.11s1.214-1.065,1.905-1.436c0.691-0.369,1.427-0.643,2.208-0.819
		c0.78-0.177,1.563-0.266,2.352-0.266c1.367,0,2.581,0.209,3.642,0.627c1.062,0.418,1.954,1.029,2.678,1.833
		c0.723,0.805,1.273,1.785,1.652,2.943c0.377,1.157,0.566,2.484,0.566,3.979v15.751h-5.958v-15.751c0-1.576-0.346-2.762-1.037-3.558
		c-0.692-0.796-1.705-1.194-3.04-1.194c-0.611,0-1.178,0.104-1.7,0.313c-0.523,0.209-0.981,0.511-1.375,0.905
		c-0.395,0.394-0.704,0.889-0.929,1.483c-0.226,0.595-0.338,1.278-0.338,2.05v15.751h-5.982v-15.751
		c0-1.656-0.334-2.862-1.001-3.618c-0.667-0.756-1.652-1.134-2.955-1.134c-0.853,0-1.652,0.214-2.4,0.64
		c-0.748,0.426-1.443,1.009-2.086,1.748v18.115H94.239z"/>
	<path fill="#FFFFFF" d="M145.085,159.906c1.561,0,2.995,0.249,4.307,0.748c1.311,0.498,2.439,1.226,3.389,2.183
		c0.948,0.957,1.688,2.131,2.219,3.521c0.531,1.392,0.797,2.979,0.797,4.764c0,0.45-0.021,0.824-0.061,1.122
		c-0.041,0.298-0.113,0.53-0.218,0.699s-0.245,0.289-0.422,0.362c-0.177,0.072-0.402,0.108-0.675,0.108h-15.293
		c0.176,2.541,0.859,4.406,2.05,5.596c1.19,1.19,2.766,1.785,4.728,1.785c0.965,0,1.797-0.112,2.497-0.338
		c0.699-0.225,1.31-0.474,1.833-0.748c0.522-0.272,0.98-0.522,1.375-0.747c0.394-0.226,0.775-0.338,1.146-0.338
		c0.241,0,0.45,0.048,0.628,0.145c0.176,0.097,0.328,0.233,0.457,0.41l1.737,2.171c-0.659,0.771-1.399,1.419-2.22,1.941
		c-0.819,0.523-1.676,0.941-2.568,1.255s-1.801,0.534-2.726,0.663s-1.821,0.192-2.689,0.192c-1.721,0-3.321-0.285-4.8-0.855
		c-1.48-0.571-2.766-1.415-3.859-2.533c-1.094-1.117-1.954-2.5-2.581-4.148c-0.628-1.648-0.94-3.558-0.94-5.729
		c0-1.688,0.273-3.276,0.82-4.765c0.546-1.486,1.33-2.781,2.352-3.883c1.021-1.102,2.268-1.974,3.738-2.617
		S143.237,159.906,145.085,159.906z M145.207,164.176c-1.736,0-3.096,0.49-4.076,1.471c-0.981,0.981-1.608,2.372-1.882,4.173h11.192
		c0-0.771-0.105-1.499-0.313-2.183c-0.21-0.684-0.53-1.282-0.965-1.797s-0.981-0.92-1.641-1.218S146.091,164.176,145.207,164.176z"
		/>
	<path fill="#FFFFFF" d="M160.643,185.04v-24.748h3.497c0.611,0,1.037,0.112,1.279,0.338c0.24,0.226,0.401,0.611,0.482,1.157
		l0.361,2.991c0.885-1.527,1.922-2.733,3.111-3.618c1.189-0.884,2.524-1.326,4.004-1.326c1.223,0,2.235,0.281,3.039,0.844
		l-0.771,4.463c-0.049,0.289-0.152,0.494-0.313,0.615c-0.161,0.12-0.378,0.181-0.651,0.181c-0.241,0-0.57-0.057-0.988-0.169
		c-0.419-0.112-0.974-0.169-1.665-0.169c-1.238,0-2.3,0.342-3.184,1.025c-0.885,0.684-1.632,1.685-2.243,3.003v15.413H160.643z"/>
	<path fill="#FFFFFF" d="M197.741,165.526c-0.177,0.226-0.351,0.402-0.519,0.53c-0.169,0.129-0.414,0.193-0.736,0.193
		c-0.305,0-0.603-0.093-0.893-0.277c-0.289-0.185-0.635-0.394-1.037-0.627s-0.88-0.442-1.435-0.628
		c-0.555-0.185-1.242-0.277-2.063-0.277c-1.046,0-1.962,0.189-2.749,0.567c-0.789,0.378-1.444,0.921-1.967,1.628
		c-0.522,0.708-0.912,1.564-1.17,2.569s-0.386,2.143-0.386,3.413c0,1.318,0.141,2.492,0.423,3.521
		c0.281,1.029,0.688,1.894,1.217,2.593c0.531,0.699,1.174,1.23,1.93,1.592c0.756,0.362,1.608,0.543,2.558,0.543
		c0.948,0,1.716-0.116,2.304-0.35c0.586-0.233,1.081-0.49,1.482-0.772c0.402-0.281,0.752-0.538,1.05-0.771
		c0.298-0.232,0.631-0.35,1.001-0.35c0.482,0,0.844,0.185,1.086,0.555l1.713,2.171c-0.66,0.771-1.375,1.419-2.147,1.941
		c-0.772,0.523-1.571,0.941-2.399,1.255c-0.829,0.313-1.686,0.534-2.569,0.663c-0.885,0.129-1.761,0.192-2.63,0.192
		c-1.527,0-2.967-0.285-4.316-0.855c-1.352-0.571-2.529-1.403-3.534-2.497c-1.005-1.093-1.802-2.432-2.388-4.016
		c-0.588-1.584-0.881-3.39-0.881-5.415c0-1.817,0.262-3.502,0.784-5.054s1.29-2.895,2.304-4.028
		c1.013-1.134,2.268-2.021,3.763-2.665s3.216-0.965,5.161-0.965c1.85,0,3.47,0.298,4.861,0.893c1.391,0.595,2.641,1.447,3.75,2.557
		L197.741,165.526z"/>
	<path fill="#FFFFFF" d="M213.587,159.906c1.56,0,2.994,0.249,4.306,0.748c1.311,0.498,2.44,1.226,3.39,2.183
		c0.947,0.957,1.688,2.131,2.219,3.521c0.53,1.392,0.796,2.979,0.796,4.764c0,0.45-0.021,0.824-0.061,1.122s-0.112,0.53-0.218,0.699
		c-0.104,0.169-0.244,0.289-0.422,0.362c-0.177,0.072-0.402,0.108-0.675,0.108h-15.293c0.177,2.541,0.86,4.406,2.05,5.596
		c1.19,1.19,2.766,1.785,4.729,1.785c0.965,0,1.797-0.112,2.496-0.338c0.699-0.225,1.311-0.474,1.834-0.748
		c0.521-0.272,0.98-0.522,1.375-0.747c0.393-0.226,0.775-0.338,1.145-0.338c0.242,0,0.451,0.048,0.628,0.145s0.329,0.233,0.458,0.41
		l1.736,2.171c-0.659,0.771-1.398,1.419-2.219,1.941c-0.82,0.523-1.676,0.941-2.568,1.255s-1.802,0.534-2.727,0.663
		c-0.924,0.129-1.82,0.192-2.689,0.192c-1.721,0-3.32-0.285-4.8-0.855c-1.479-0.571-2.766-1.415-3.859-2.533
		c-1.093-1.117-1.954-2.5-2.581-4.148s-0.94-3.558-0.94-5.729c0-1.688,0.273-3.276,0.82-4.765c0.546-1.486,1.33-2.781,2.352-3.883
		c1.021-1.102,2.268-1.974,3.739-2.617C210.078,160.228,211.738,159.906,213.587,159.906z M213.708,164.176
		c-1.737,0-3.096,0.49-4.076,1.471c-0.982,0.981-1.609,2.372-1.883,4.173h11.193c0-0.771-0.105-1.499-0.314-2.183
		s-0.53-1.282-0.965-1.797c-0.434-0.515-0.98-0.92-1.641-1.218C215.365,164.324,214.592,164.176,213.708,164.176z"/>
</g>
<g>
</g>
<g>
</g>
<g>
</g>
<g>
</g>
<g>
</g>
<g>
</g>
<g>
</g>
<g>
</g>
<g>
</g>
<g>
</g>
<g>
</g>
<g>
</g>
<g>
</g>
<g>
</g>
<g>
</g>
</svg>
